<svg width="527" height="289" viewBox="0 0 527 289" fill="none" xmlns="http://www.w3.org/2000/svg">
<path fill-rule="evenodd" clip-rule="evenodd" d="M203.95 259.766C201.669 257.296 199.797 255.356 198.02 253.329C191.289 245.649 185.831 237.121 181.796 227.682C181.149 226.17 180.355 225.62 178.716 225.65C172.897 225.757 167.072 225.708 161.25 225.686C156.112 225.67 153.391 223.059 153.239 217.867C153.137 214.39 153.133 210.905 153.244 207.429C153.408 202.32 156.096 199.764 161.123 199.757C165.322 199.749 169.524 199.756 173.993 199.756C172.942 188.119 173.127 176.796 175.586 165.246C174.301 165.246 173.31 165.246 172.321 165.246C120.723 165.246 69.125 165.249 17.5274 165.243C10.5014 165.243 5.29409 161.07 4.02138 154.466C2.51853 146.669 8.37417 139.218 16.2532 138.913C17.0531 138.883 17.8543 138.903 18.6541 138.903C73.3092 138.903 127.962 138.89 182.617 138.951C184.634 138.953 185.696 138.299 186.691 136.548C193.406 124.726 202.221 114.787 213.048 106.703C213.614 106.279 214.157 105.818 214.65 104.83C213.764 104.83 212.878 104.83 211.992 104.83C170.365 104.83 128.738 104.857 87.1098 104.766C84.5672 104.76 81.8172 104.305 79.5256 103.247C74.0924 100.74 71.3967 94.4131 72.7652 88.5504C74.1162 82.754 79.3907 78.5017 85.3492 78.496C103.688 78.4756 122.028 78.4875 140.366 78.4875C173.916 78.4875 207.464 78.47 241.014 78.5346C242.979 78.5374 243.934 78.0489 244.593 76.0577C248 65.7562 252.961 56.2459 259.173 47.4079C259.749 46.587 260.31 45.7533 261.147 44.5356C259.776 44.4728 258.808 44.3871 257.84 44.3871C209.153 44.38 160.468 44.41 111.781 44.3058C109.042 44.3 106.05 43.7361 103.623 42.5113C98.4018 39.8761 95.9952 33.5605 97.4787 27.9844C99.0949 21.9059 104.03 18.07 110.336 18.07C169.138 18.0629 227.941 18.0586 286.743 18.0972C288.639 18.0986 290.227 17.6532 291.849 16.6568C306.923 7.39903 323.238 2.24696 340.841 1.07494C392.042 -2.33551 437.879 31.8931 452.289 81.5453C453.11 84.3746 453.872 87.2369 454.414 90.132C454.7 91.658 455.311 92.3301 456.753 92.844C488.669 104.212 509.866 126.4 519.256 159.338C534.37 212.351 504.693 266.74 454.205 281.893C446.285 284.269 438.188 285.623 429.943 285.669C392.702 285.877 355.463 286.076 318.223 286.11C244.575 286.176 170.926 286.139 97.2776 286.082C95.0749 286.079 92.7216 285.769 90.694 284.947C84.9701 282.629 81.9815 276.566 83.1177 270.316C84.187 264.447 89.4252 259.986 95.5141 259.768C96.168 259.746 96.8231 259.762 97.4787 259.762C131.828 259.762 166.177 259.762 200.528 259.762C201.454 259.766 202.385 259.766 203.95 259.766Z" fill="#2F39BF"/>
<path fill-rule="evenodd" clip-rule="evenodd" d="M66.2327 225.688C51.3993 225.688 36.5659 225.691 21.7311 225.687C15.7323 225.684 13.1953 223.159 13.17 217.132C13.1546 213.654 13.1125 210.175 13.2163 206.7C13.3384 202.613 16.1785 199.772 20.2085 199.769C50.9657 199.744 81.7242 199.742 112.483 199.772C116.517 199.775 119.417 202.739 119.544 206.963C119.661 210.954 119.664 214.956 119.548 218.947C119.431 222.927 116.213 225.674 111.824 225.683C101.644 225.702 91.4624 225.69 81.2834 225.69C76.2672 225.688 71.2505 225.688 66.2327 225.688Z" fill="#2F39BF"/>
</svg>
